<svg width="30" height="31" viewBox="0 0 30 31" fill="none" xmlns="http://www.w3.org/2000/svg">
<path fill-rule="evenodd" clip-rule="evenodd" d="M4.21875 0.218262C3.09987 0.218262 2.02681 0.662736 1.23564 1.4539C0.444474 2.24507 0 3.31813 0 4.43701V25.9995C0 27.1184 0.444474 28.1915 1.23564 28.9826C2.02681 29.7738 3.09987 30.2183 4.21875 30.2183H25.7813C26.9001 30.2183 27.9732 29.7738 28.7644 28.9826C29.5555 28.1915 30 27.1184 30 25.9995V4.43701C30 3.31813 29.5555 2.24507 28.7644 1.4539C27.9732 0.662736 26.9001 0.218262 25.7813 0.218262H4.21875ZM11.775 11.9933C12.0234 11.7267 12.1586 11.3741 12.1522 11.0098C12.1458 10.6455 11.9982 10.2979 11.7405 10.0402C11.4829 9.78257 11.1353 9.63499 10.771 9.62856C10.4067 9.62213 10.0541 9.75736 9.7875 10.0058L5.56875 14.2245C5.30541 14.4882 5.15749 14.8456 5.15749 15.2183C5.15749 15.5909 5.30541 15.9483 5.56875 16.212L9.7875 20.4308C10.0541 20.6792 10.4067 20.8144 10.771 20.808C11.1353 20.8015 11.4829 20.654 11.7405 20.3963C11.9982 20.1387 12.1458 19.7911 12.1522 19.4267C12.1586 19.0624 12.0234 18.7098 11.775 18.4433L8.55 15.2183L11.775 11.9933ZM20.2125 10.0058C20.0838 9.8676 19.9285 9.75678 19.756 9.67992C19.5835 9.60306 19.3973 9.56173 19.2085 9.5584C19.0197 9.55507 18.8321 9.5898 18.657 9.66053C18.4819 9.73126 18.3228 9.83653 18.1893 9.97007C18.0558 10.1036 17.9505 10.2627 17.8798 10.4378C17.809 10.6129 17.7743 10.8004 17.7776 10.9892C17.781 11.1781 17.8223 11.3643 17.8992 11.5368C17.976 11.7093 18.0868 11.8645 18.225 11.9933L21.45 15.2183L18.225 18.4433C18.0868 18.572 17.976 18.7273 17.8992 18.8998C17.8223 19.0723 17.781 19.2585 17.7776 19.4473C17.7743 19.6361 17.809 19.8237 17.8798 19.9988C17.9505 20.1739 18.0558 20.3329 18.1893 20.4665C18.3228 20.6 18.4819 20.7053 18.657 20.776C18.8321 20.8467 19.0197 20.8815 19.2085 20.8781C19.3973 20.8748 19.5835 20.8335 19.756 20.7566C19.9285 20.6797 20.0838 20.5689 20.2125 20.4308L24.4313 16.212C24.6946 15.9483 24.8425 15.5909 24.8425 15.2183C24.8425 14.8456 24.6946 14.4882 24.4313 14.2245L20.2125 10.0058Z" fill="url(#paint0_linear_2940_1114)"/>
<defs>
<linearGradient id="paint0_linear_2940_1114" x1="0" y1="0.218262" x2="35.8573" y2="11.3487" gradientUnits="userSpaceOnUse">
<stop stop-color="#42B883"/>
<stop offset="0.0001" stop-color="#42B883"/>
<stop offset="1" stop-color="#0EBBD2"/>
</linearGradient>
</defs>
</svg>
