<svg width="30" height="31" viewBox="0 0 30 31" fill="none" xmlns="http://www.w3.org/2000/svg">
<path d="M18.3333 23.5516H6.66667V20.2183H18.3333M23.3333 16.8849H6.66667V13.5516H23.3333M23.3333 10.2183H6.66667V6.88493H23.3333M26.6667 0.218262H3.33333C1.48333 0.218262 0 1.70159 0 3.55159V26.8849C0 27.769 0.351189 28.6168 0.976311 29.2419C1.60143 29.8671 2.44928 30.2183 3.33333 30.2183H26.6667C27.5507 30.2183 28.3986 29.8671 29.0237 29.2419C29.6488 28.6168 30 27.769 30 26.8849V3.55159C30 2.66754 29.6488 1.81969 29.0237 1.19457C28.3986 0.569451 27.5507 0.218262 26.6667 0.218262Z" fill="url(#paint0_linear_2940_169)"/>
<defs>
<linearGradient id="paint0_linear_2940_169" x1="0" y1="0.218262" x2="35.8573" y2="11.3487" gradientUnits="userSpaceOnUse">
<stop stop-color="#42B883"/>
<stop offset="0.0001" stop-color="#42B883"/>
<stop offset="1" stop-color="#0EBBD2"/>
</linearGradient>
</defs>
</svg>
