<svg width="50" height="51" viewBox="0 0 50 51" fill="none" xmlns="http://www.w3.org/2000/svg">
<path fill-rule="evenodd" clip-rule="evenodd" d="M7.03125 0.166016C5.16645 0.166016 3.37802 0.906806 2.05941 2.22542C0.74079 3.54404 0 5.33246 0 7.19727V43.1348C0 44.9996 0.74079 46.788 2.05941 48.1066C3.37802 49.4252 5.16645 50.166 7.03125 50.166H42.9688C44.8336 50.166 46.622 49.4252 47.9406 48.1066C49.2592 46.788 50 44.9996 50 43.1348V7.19727C50 5.33246 49.2592 3.54404 47.9406 2.22542C46.622 0.906806 44.8336 0.166016 42.9688 0.166016H7.03125ZM19.625 19.791C20.039 19.3467 20.2644 18.7591 20.2537 18.1519C20.243 17.5447 19.997 16.9654 19.5676 16.5359C19.1382 16.1065 18.5588 15.8606 17.9516 15.8498C17.3444 15.8391 16.7568 16.0645 16.3125 16.4785L9.28125 23.5098C8.84234 23.9492 8.59581 24.5449 8.59581 25.166C8.59581 25.7871 8.84234 26.3828 9.28125 26.8223L16.3125 33.8535C16.7568 34.2675 17.3444 34.4929 17.9516 34.4822C18.5588 34.4715 19.1382 34.2255 19.5676 33.7961C19.997 33.3667 20.243 32.7873 20.2537 32.1801C20.2644 31.573 20.039 30.9853 19.625 30.541L14.25 25.166L19.625 19.791ZM33.6875 16.4785C33.4729 16.2482 33.2142 16.0635 32.9267 15.9354C32.6392 15.8073 32.3288 15.7385 32.0141 15.7329C31.6994 15.7274 31.3868 15.7853 31.095 15.9031C30.8032 16.021 30.5381 16.1965 30.3155 16.419C30.0929 16.6416 29.9175 16.9067 29.7996 17.1985C29.6817 17.4904 29.6238 17.803 29.6294 18.1176C29.635 18.4323 29.7038 18.7427 29.8319 19.0302C29.96 19.3177 30.1447 19.5764 30.375 19.791L35.75 25.166L30.375 30.541C30.1447 30.7556 29.96 31.0143 29.8319 31.3018C29.7038 31.5893 29.635 31.8997 29.6294 32.2144C29.6238 32.5291 29.6817 32.8417 29.7996 33.1335C29.9175 33.4253 30.0929 33.6904 30.3155 33.913C30.5381 34.1356 30.8032 34.311 31.095 34.4289C31.3868 34.5468 31.6994 34.6047 32.0141 34.5991C32.3288 34.5936 32.6392 34.5247 32.9267 34.3966C33.2142 34.2685 33.4729 34.0838 33.6875 33.8535L40.7188 26.8223C41.1577 26.3828 41.4042 25.7871 41.4042 25.166C41.4042 24.5449 41.1577 23.9492 40.7188 23.5098L33.6875 16.4785Z" fill="url(#paint0_linear_532_2279)"/>
<defs>
<linearGradient id="paint0_linear_532_2279" x1="0" y1="0.166016" x2="59.7621" y2="18.7167" gradientUnits="userSpaceOnUse">
<stop stop-color="#42B883"/>
<stop offset="0.0001" stop-color="#42B883"/>
<stop offset="1" stop-color="#0EBBD2"/>
</linearGradient>
</defs>
</svg>
